<svg width="48" height="48" viewBox="0 0 48 48" fill="none" xmlns="http://www.w3.org/2000/svg">
<g clip-path="url(#clip0_193_263)">
<path fill-rule="evenodd" clip-rule="evenodd" d="M7.2 0C3.22355 0 0 3.22355 0 7.2V40.8C0 44.7764 3.22355 48 7.2 48H40.8C44.7764 48 48 44.7764 48 40.8V7.2C48 3.22355 44.7764 0 40.8 0H7.2ZM24 12C25.3255 12 26.4 13.0745 26.4 14.4V21.6H33.6C34.9255 21.6 36 22.6745 36 24C36 25.3255 34.9255 26.4 33.6 26.4H26.4V33.6C26.4 34.9255 25.3255 36 24 36C22.6745 36 21.6 34.9255 21.6 33.6V26.4H14.4C13.0745 26.4 12 25.3255 12 24C12 22.6745 13.0745 21.6 14.4 21.6H21.6V14.4C21.6 13.0745 22.6745 12 24 12Z" fill="#134074"/>
</g>
<defs>
<clipPath id="clip0_193_263">
<rect width="48" height="48" fill="white"/>
</clipPath>
</defs>
</svg>
