<svg width="48" height="48" viewBox="0 0 48 48" fill="none" xmlns="http://www.w3.org/2000/svg">
<path fill-rule="evenodd" clip-rule="evenodd" d="M22.2642 8.48665C21.9115 8.41564 21.547 8.43448 21.2031 8.54148C20.8593 8.64848 20.5468 8.84034 20.2933 9.09999C19.4436 9.97039 18.0619 9.97456 17.2071 9.1093C16.3524 8.24404 16.3483 6.83701 17.198 5.96661C17.9584 5.18766 18.896 4.61209 19.9276 4.29108C20.9591 3.97007 22.0525 3.91356 23.1106 4.12658C24.1688 4.3396 25.1588 4.81554 25.9928 5.5121C26.8267 6.20865 27.4788 7.10425 27.8909 8.11926C28.3031 9.13427 28.4626 10.2373 28.3552 11.3302C28.2479 12.4231 27.877 13.472 27.2756 14.3838C26.6742 15.2956 25.8609 16.042 24.908 16.5565C23.9566 17.0702 22.8955 17.3371 21.8187 17.3333H2.18226C0.977032 17.3333 0 16.3384 0 15.1111C0 13.8838 0.977032 12.8889 2.18226 12.8889H21.8318C22.1913 12.8904 22.5457 12.8015 22.8633 12.63C23.1809 12.4584 23.452 12.2097 23.6525 11.9057C23.853 11.6018 23.9766 11.2521 24.0124 10.8878C24.0482 10.5235 23.995 10.1559 23.8576 9.81754C23.7202 9.4792 23.5029 9.18067 23.2249 8.94848C22.9469 8.7163 22.6169 8.55765 22.2642 8.48665ZM41.0023 15.1755C40.4748 15.0683 39.9295 15.0952 39.4146 15.2538C38.8998 15.4123 38.4312 15.6976 38.0504 16.0844C37.1971 16.9512 35.8153 16.9494 34.9642 16.0805C34.113 15.2115 34.1148 13.8045 34.9681 12.9378C35.8567 12.0352 36.95 11.3695 38.1514 10.9996C39.3527 10.6296 40.6251 10.5669 41.8559 10.8169C43.0868 11.0668 44.2382 11.6218 45.2082 12.4327C46.1783 13.2436 46.9372 14.2855 47.4178 15.4661C47.8984 16.6468 48.0859 17.9298 47.9637 19.2018C47.8415 20.4738 47.4133 21.6955 46.7171 22.7589C46.0209 23.8223 45.0781 24.6946 43.972 25.2987C42.866 25.9027 41.6308 26.2199 40.3758 26.2222L40.3718 26.2222H2.18226C0.977032 26.2222 0 25.2273 0 24C0 22.7727 0.977032 21.7778 2.18226 21.7778H40.3695C40.9068 21.7765 41.4356 21.6406 41.9092 21.382C42.3832 21.1231 42.7873 20.7492 43.0857 20.2935C43.3841 19.8378 43.5675 19.3142 43.6199 18.769C43.6723 18.2239 43.5919 17.674 43.386 17.168C43.18 16.662 42.8548 16.2155 42.439 15.868C42.0233 15.5205 41.5298 15.2826 41.0023 15.1755ZM28.3651 30.6667C29.4421 30.6629 30.5033 30.9297 31.4548 31.4435C32.4077 31.958 33.221 32.7044 33.8224 33.6162C34.4238 34.528 34.7947 35.5769 34.902 36.6698C35.0094 37.7627 34.8499 38.8657 34.4377 39.8807C34.0256 40.8958 33.3735 41.7913 32.5396 42.4879C31.7056 43.1845 30.7156 43.6604 29.6574 43.8734C28.5993 44.0864 27.5059 44.0299 26.4744 43.7089C25.4428 43.3879 24.5052 42.8123 23.7448 42.0334C22.8951 41.163 22.8992 39.756 23.7539 38.8907C24.6086 38.0254 25.9904 38.0296 26.8401 38.9C27.0935 39.1597 27.4061 39.3515 27.7499 39.4585C28.0938 39.5655 28.4583 39.5844 28.811 39.5134C29.1637 39.4423 29.4937 39.2837 29.7717 39.0515C30.0497 38.8193 30.267 38.5208 30.4044 38.1825C30.5418 37.8441 30.5949 37.4765 30.5592 37.1122C30.5234 36.7479 30.3998 36.3982 30.1993 36.0943C29.9988 35.7903 29.7277 35.5416 29.4101 35.37C29.0924 35.1985 28.7381 35.1096 28.3786 35.1111L28.3694 35.1111H2.18226C0.977032 35.1111 0 34.1162 0 32.8889C0 31.6616 0.977032 30.6667 2.18226 30.6667H28.3651Z" fill="black"/>
</svg>
