<svg width="48" height="48" viewBox="0 0 48 48" fill="none" xmlns="http://www.w3.org/2000/svg">
<g clip-path="url(#clip0_247_108)">
<path fill-rule="evenodd" clip-rule="evenodd" d="M36.3674 5.24102C37.0063 4.21879 36.6955 2.8722 35.6733 2.23331C34.6511 1.59442 33.3045 1.90517 32.6656 2.92739L7.69588 42.879C7.05699 43.9012 7.36774 45.2478 8.38997 45.8867C9.41219 46.5256 10.7588 46.2148 11.3977 45.1926L36.3674 5.24102ZM21.1982 8.81114C21.5421 8.70604 21.9066 8.68754 22.2594 8.75728C22.6122 8.82702 22.9422 8.98284 23.2203 9.2109C24.1523 9.97537 25.5276 9.83953 26.2921 8.90749C27.0566 7.97545 26.9207 6.60015 25.9887 5.83568C25.1546 5.15152 24.1643 4.68405 23.106 4.47482C22.0477 4.2656 20.954 4.3211 19.9223 4.6364C18.8906 4.95169 17.9528 5.51701 17.1922 6.2821C16.3424 7.13701 16.3465 8.51899 17.2014 9.36885C18.0563 10.2187 19.4383 10.2146 20.2881 9.3597C20.5416 9.10467 20.8543 8.91623 21.1982 8.81114ZM39.413 15.4039C39.928 15.2482 40.4734 15.2218 41.001 15.327C41.5286 15.4323 42.0221 15.6659 42.438 16.0072C42.8538 16.3486 43.1791 16.7871 43.3851 17.2841C43.5911 17.7811 43.6715 18.3212 43.6191 18.8566C43.5667 19.3921 43.3832 19.9063 43.0848 20.354C42.7863 20.8016 42.3822 21.1688 41.9081 21.4231C41.4344 21.6771 40.9055 21.8106 40.3681 21.8118H29.2307C28.0252 21.8118 27.048 22.789 27.048 23.9945C27.048 25.1999 28.0252 26.1771 29.2307 26.1771H40.3704L40.3743 26.1771C41.6296 26.1749 42.865 25.8633 43.9713 25.27C45.0775 24.6767 46.0205 23.82 46.7169 22.7755C47.4132 21.731 47.8415 20.5311 47.9637 19.2817C48.0859 18.0324 47.8984 16.7721 47.4177 15.6125C46.937 14.4529 46.178 13.4296 45.2077 12.6331C44.2374 11.8366 43.0859 11.2915 41.8548 11.046C40.6237 10.8005 39.3511 10.8621 38.1495 11.2255C36.948 11.5888 35.8544 12.2426 34.9657 13.1292C34.1122 13.9805 34.1105 15.3624 34.9618 16.2159C35.8131 17.0694 37.1951 17.0711 38.0485 16.2198C38.4294 15.8399 38.8981 15.5597 39.413 15.4039ZM2.17373 13.0811C0.968272 13.0811 -0.00894165 14.0583 -0.00894165 15.2638C-0.00894165 16.4693 0.968272 17.4465 2.17373 17.4465H20.1807C21.3862 17.4465 22.3634 16.4693 22.3634 15.2638C22.3634 14.0583 21.3862 13.0811 20.1807 13.0811H2.17373ZM2.17373 21.8118C0.968272 21.8118 -0.00894165 22.789 -0.00894165 23.9945C-0.00894165 25.1999 0.968272 26.1771 2.17373 26.1771H15.2697C16.4752 26.1771 17.4524 25.1999 17.4524 23.9945C17.4524 22.789 16.4752 21.8118 15.2697 21.8118H2.17373ZM31.4517 31.3055C30.5 30.8008 29.4386 30.5388 28.3615 30.5425H24.6045C23.399 30.5425 22.4218 31.5197 22.4218 32.7252C22.4218 33.9306 23.399 34.9078 24.6045 34.9078H28.3657L28.3749 34.9078C28.7345 34.9063 29.0889 34.9937 29.4066 35.1621C29.7243 35.3306 29.9955 35.5749 30.196 35.8735C30.3965 36.172 30.5201 36.5154 30.5559 36.8732C30.5917 37.231 30.5385 37.5922 30.4011 37.9245C30.2637 38.2568 30.0463 38.55 29.7683 38.7781C29.4902 39.0061 29.1602 39.1619 28.8074 39.2317C28.4546 39.3014 28.0901 39.2829 27.7462 39.1778C27.4023 39.0727 27.0897 38.8843 26.8361 38.6293C25.9863 37.7743 24.6043 37.7703 23.7494 38.6201C22.8945 39.47 22.8904 40.8519 23.7402 41.7069C24.5008 42.4719 25.4386 43.0373 26.4703 43.3526C27.502 43.6679 28.5957 43.7234 29.654 43.5141C30.7123 43.3049 31.7026 42.8374 32.5367 42.1533C33.3708 41.4691 34.023 40.5895 34.4352 39.5925C34.8474 38.5956 35.0069 37.5122 34.8996 36.4388C34.7922 35.3653 34.4213 34.335 33.8198 33.4395C33.2183 32.5439 32.4048 31.8109 31.4517 31.3055ZM2.17373 30.5425C0.968272 30.5425 -0.00894165 31.5197 -0.00894165 32.7252C-0.00894165 33.9306 0.968272 34.9078 2.17373 34.9078H8.72173C9.92719 34.9078 10.9044 33.9306 10.9044 32.7252C10.9044 31.5197 9.92719 30.5425 8.72173 30.5425H2.17373Z" fill="black"/>
</g>
<defs>
<clipPath id="clip0_247_108">
<rect width="48" height="48" fill="white"/>
</clipPath>
</defs>
</svg>
