<svg width="48" height="48" viewBox="0 0 48 48" fill="none" xmlns="http://www.w3.org/2000/svg">
<path fill-rule="evenodd" clip-rule="evenodd" d="M8.6 8.4C7.38497 8.4 6.4 9.38497 6.4 10.6V41.4C6.4 42.615 7.38497 43.6 8.6 43.6H39.4C40.615 43.6 41.6 42.615 41.6 41.4V10.6C41.6 9.38497 40.615 8.4 39.4 8.4H8.6ZM2 10.6C2 6.95492 4.95492 4 8.6 4H39.4C43.0451 4 46 6.95492 46 10.6V41.4C46 45.0451 43.0451 48 39.4 48H8.6C4.95492 48 2 45.0451 2 41.4V10.6Z" fill="black"/>
<path fill-rule="evenodd" clip-rule="evenodd" d="M32 0C33.1046 0 34 1.04467 34 2.33333V11.6667C34 12.9553 33.1046 14 32 14C30.8954 14 30 12.9553 30 11.6667V2.33333C30 1.04467 30.8954 0 32 0Z" fill="black"/>
<path fill-rule="evenodd" clip-rule="evenodd" d="M16 0C17.1046 0 18 1.04467 18 2.33333V11.6667C18 12.9553 17.1046 14 16 14C14.8954 14 14 12.9553 14 11.6667V2.33333C14 1.04467 14.8954 0 16 0Z" fill="black"/>
<path fill-rule="evenodd" clip-rule="evenodd" d="M2 20C2 18.8954 2.98497 18 4.2 18H43.8C45.015 18 46 18.8954 46 20C46 21.1046 45.015 22 43.8 22H4.2C2.98497 22 2 21.1046 2 20Z" fill="black"/>
</svg>
