<svg width="48" height="48" viewBox="0 0 48 48" fill="none" xmlns="http://www.w3.org/2000/svg">
<g clip-path="url(#clip0_293_92)">
<path fill-rule="evenodd" clip-rule="evenodd" d="M31.992 6.0636C28.1242 4.34019 23.8028 3.91325 19.6725 4.84644C15.5422 5.77963 11.8242 8.02296 9.07299 11.2419C6.32179 14.4608 4.68482 18.4827 4.4062 22.708C4.12759 26.9333 5.22227 31.1354 7.52698 34.6877C9.83169 38.2399 13.2229 40.952 17.195 42.4195C21.167 43.887 25.507 44.0311 29.5676 42.8305C33.6283 41.6299 37.192 39.1489 39.7274 35.7574C42.2628 32.3659 43.6339 28.2457 43.6364 24.0112V22.0052C43.6364 20.8002 44.6132 19.8234 45.8182 19.8234C47.0232 19.8234 48 20.8002 48 22.0052V24.0125C47.997 29.1879 46.3212 34.2249 43.2224 38.3701C40.1236 42.5153 35.7679 45.5477 30.8048 47.0151C25.8418 48.4825 20.5374 48.3063 15.6827 46.5127C10.828 44.7192 6.68317 41.4044 3.8663 37.0627C1.04944 32.721 -0.288501 27.5851 0.0520243 22.4209C0.39255 17.2567 2.3933 12.3409 5.75587 8.40671C9.11844 4.4725 13.6627 1.73065 18.7108 0.590087C23.759 -0.55048 29.0406 -0.0286543 33.768 2.07774C34.8687 2.56817 35.3634 3.858 34.8729 4.95867C34.3825 6.05934 33.0927 6.55403 31.992 6.0636Z" fill="black"/>
<path fill-rule="evenodd" clip-rule="evenodd" d="M47.3744 4.63331C48.2079 5.47832 48.2086 6.84903 47.3759 7.69489L26.0426 29.3652C25.6426 29.7715 25.0998 29.9999 24.5339 30C23.9679 30.0001 23.425 29.7721 23.0248 29.3659L16.6248 22.8713C15.7917 22.0259 15.7917 20.6552 16.6248 19.8098C17.458 18.9643 18.8087 18.9643 19.6418 19.8098L24.5326 24.7728L44.3574 4.63484C45.1901 3.78899 46.5409 3.7883 47.3744 4.63331Z" fill="black"/>
</g>
<defs>
<clipPath id="clip0_293_92">
<rect width="48" height="48" fill="white"/>
</clipPath>
</defs>
</svg>
