<svg width="48" height="48" viewBox="0 0 48 48" fill="none" xmlns="http://www.w3.org/2000/svg">
<g clip-path="url(#clip0_293_89)">
<path fill-rule="evenodd" clip-rule="evenodd" d="M24 4.36364C13.1551 4.36364 4.36364 13.1551 4.36364 24C4.36364 34.8449 13.1551 43.6364 24 43.6364C34.8449 43.6364 43.6364 34.8449 43.6364 24C43.6364 13.1551 34.8449 4.36364 24 4.36364ZM0 24C0 10.7452 10.7452 0 24 0C37.2548 0 48 10.7452 48 24C48 37.2548 37.2548 48 24 48C10.7452 48 0 37.2548 0 24Z" fill="black"/>
<path fill-rule="evenodd" clip-rule="evenodd" d="M23.9999 8C25.1045 8 25.9999 8.98495 25.9999 10.2V22.04L32.894 25.8319C33.882 26.3752 34.2824 27.6967 33.7884 28.7834C33.2945 29.8701 32.0932 30.3106 31.1052 29.7673L23.1055 25.3674C22.428 24.9947 22 24.2329 22 23.3997V10.2C22 8.98495 22.8954 8 23.9999 8Z" fill="black"/>
</g>
<defs>
<clipPath id="clip0_293_89">
<rect width="48" height="48" fill="white"/>
</clipPath>
</defs>
</svg>
