<svg width="48" height="48" viewBox="0 0 48 48" fill="none" xmlns="http://www.w3.org/2000/svg">
<g clip-path="url(#clip0_297_99)">
<path fill-rule="evenodd" clip-rule="evenodd" d="M1.9331 5.9331C3.17084 4.69535 4.84957 4 6.6 4H22C23.215 4 24.2 4.98497 24.2 6.2C24.2 7.41503 23.215 8.4 22 8.4H6.6C6.01652 8.4 5.45694 8.63179 5.04437 9.04437C4.63179 9.45694 4.4 10.0165 4.4 10.6V41.4C4.4 41.9835 4.63178 42.5431 5.04437 42.9556C5.45695 43.3682 6.01652 43.6 6.6 43.6H37.4C37.9835 43.6 38.5431 43.3682 38.9556 42.9556C39.3682 42.5431 39.6 41.9835 39.6 41.4V26C39.6 24.785 40.585 23.8 41.8 23.8C43.015 23.8 44 24.785 44 26V41.4C44 43.1504 43.3046 44.8292 42.0669 46.0669C40.8292 47.3046 39.1504 48 37.4 48H6.6C4.84957 48 3.17083 47.3046 1.9331 46.0669C0.695355 44.8292 0 43.1504 0 41.4V10.6C0 8.84957 0.695355 7.17084 1.9331 5.9331Z" fill="black"/>
<path fill-rule="evenodd" clip-rule="evenodd" d="M41.4171 4.21801C40.7899 4.21801 40.1884 4.46717 39.7449 4.91067L20.1224 24.5332L19.0076 28.9924L23.4668 27.8776L43.0893 8.2551C43.5328 7.8116 43.782 7.21008 43.782 6.58288C43.782 5.95568 43.5328 5.35417 43.0893 4.91067C42.6458 4.46717 42.0443 4.21801 41.4171 4.21801ZM36.7623 1.92808C37.9968 0.693552 39.6712 0 41.4171 0C43.163 0 44.8374 0.693552 46.0719 1.92808C47.3064 3.16261 48 4.83699 48 6.58288C48 8.32877 47.3064 10.0032 46.0719 11.2377L26.0364 31.2732C25.7661 31.5435 25.4274 31.7353 25.0566 31.828L16.6206 33.937C15.9019 34.1167 15.1416 33.9061 14.6178 33.3822C14.0939 32.8584 13.8833 32.0981 14.063 31.3794L16.172 22.9434C16.2647 22.5726 16.4565 22.2339 16.7268 21.9636L36.7623 1.92808Z" fill="black"/>
</g>
<defs>
<clipPath id="clip0_297_99">
<rect width="48" height="48" fill="white"/>
</clipPath>
</defs>
</svg>
