<svg width="48" height="47" viewBox="0 0 48 47" fill="none" xmlns="http://www.w3.org/2000/svg">
<path fill-rule="evenodd" clip-rule="evenodd" d="M30.4485 18.9454C30.4485 18.9454 36.0906 15.6501 41.3773 6.60093C40.0495 4.75873 38.2164 3.78082 37.0211 3.30907C36.2997 3.02328 34.1426 5.77797 34.1426 5.77797C34.1426 5.77797 35.4808 2.55842 34.8744 2.08668C33.8637 1.30159 32.0864 0.213489 29.8038 0C24.5171 9.04572 24.4509 15.5227 24.4509 15.5227L27.448 17.234L30.445 18.9454H30.4485ZM13.8532 5.78139C13.8532 5.78139 12.515 2.5584 13.1283 2.08322H13.1248C14.139 1.29813 15.9093 0.216914 18.1885 0.00342571C23.4751 9.04915 23.5413 15.5261 23.5413 15.5261L20.5443 17.2375L17.5472 18.9488C17.5472 18.9488 11.9051 15.6501 6.61844 6.60436C7.94969 4.75871 9.79323 3.7808 10.9851 3.30906C11.6995 3.0267 13.8532 5.78139 13.8532 5.78139ZM17.0977 23.1428V19.7201C17.0977 19.7201 11.3858 16.5385 0.816006 16.5385C-0.135384 18.5942 -0.0726543 20.6533 0.108563 21.9101C0.216596 22.6711 3.712 23.1394 3.712 23.1394C3.712 23.1394 0.220085 23.6043 0.112051 24.3584C-0.0691659 25.6152 -0.13538 27.6778 0.819495 29.7403C11.3928 29.7403 17.1012 26.5587 17.1012 26.5587V23.136L17.0977 23.1428ZM6.61844 39.6848C11.9051 30.6356 17.5472 27.3403 17.5472 27.3403H17.5507L20.5478 29.0517L23.5448 30.763C23.5448 30.763 23.4786 37.24 18.1919 46.2857C15.9093 46.0722 14.132 44.9841 13.1214 44.199C12.515 43.7273 13.8532 40.5077 13.8532 40.5077C13.8532 40.5077 11.696 43.2624 10.9746 42.9766C9.77929 42.5049 7.94621 41.527 6.61844 39.6848ZM27.4514 29.0517L30.4485 27.3403H30.452C30.452 27.3403 36.0941 30.6391 41.3808 39.6848C40.0495 41.5304 38.206 42.5083 37.0141 42.9801C36.2997 43.2624 34.146 40.5077 34.146 40.5077C34.146 40.5077 35.4842 43.7307 34.8709 44.2059C33.8568 44.991 32.0864 46.0722 29.8073 46.2857C24.5206 37.24 24.4544 30.763 24.4544 30.763L27.4514 29.0517ZM44.2907 23.1429C44.2907 23.1429 47.7861 23.6112 47.8941 24.3721L47.8906 24.3756C48.0719 25.6324 48.1346 27.6915 47.1832 29.7472C36.6134 29.7472 30.9015 26.5656 30.9015 26.5656V19.7236C30.9015 19.7236 36.6099 16.5419 47.1832 16.5419C48.1381 18.6045 48.0719 20.6671 47.8906 21.9239C47.7826 22.678 44.2907 23.1429 44.2907 23.1429Z" fill="black"/>
</svg>
