<svg width="48" height="48" viewBox="0 0 48 48" fill="none" xmlns="http://www.w3.org/2000/svg">
<g clip-path="url(#clip0_27_107)">
<path fill-rule="evenodd" clip-rule="evenodd" d="M7.2 4.79999C6.56348 4.79999 5.95303 5.05285 5.50294 5.50293C5.05286 5.95302 4.8 6.56347 4.8 7.19999V39.8058L10.3029 34.3029C10.753 33.8528 11.3635 33.6 12 33.6H40.8C41.4365 33.6 42.047 33.3471 42.4971 32.897C42.9471 32.4469 43.2 31.8365 43.2 31.2V7.19999C43.2 6.56347 42.9471 5.95302 42.4971 5.50293C42.047 5.05285 41.4365 4.79999 40.8 4.79999H7.2ZM2.10883 2.10883C3.45909 0.758568 5.29044 0 7.2 0H40.8C42.7096 0 44.5409 0.758568 45.8912 2.10883C47.2414 3.45909 48 5.29043 48 7.19999V31.2C48 33.1095 47.2414 34.9409 45.8912 36.2911C44.5409 37.6414 42.7096 38.3999 40.8 38.3999H12.9941L4.09706 47.297C3.41066 47.9834 2.37838 48.1887 1.48156 47.8172C0.584741 47.4458 0 46.5706 0 45.5999V7.19999C0 5.29043 0.758569 3.45909 2.10883 2.10883Z" fill="black"/>
</g>
<defs>
<clipPath id="clip0_27_107">
<rect width="48" height="48" fill="white"/>
</clipPath>
</defs>
</svg>
