<svg width="48" height="48" viewBox="0 0 48 48" fill="none" xmlns="http://www.w3.org/2000/svg">
<g clip-path="url(#clip0_193_260)">
<path fill-rule="evenodd" clip-rule="evenodd" d="M5.91472 32.3147C8.16515 30.0643 11.2174 28.8 14.4 28.8H33.6C36.7826 28.8 39.8348 30.0643 42.0853 32.3147C44.3357 34.5651 45.6 37.6174 45.6 40.8V45.6C45.6 46.9255 44.5255 48 43.2 48C41.8745 48 42.0853 48 40.5 48H38C36 48 35.5 48 33.5 48C31.5 48 29.4096 48 27.5 48H22C20.0904 48 17 48 15.5 48C13 48 12.5 48 10.5 48H7.2C5.5 48 6.12548 48 4.8 48C3.47452 48 2.4 46.9255 2.4 45.6V40.8C2.4 37.6174 3.66428 34.5651 5.91472 32.3147Z" fill="#134074"/>
<path d="M12 12C12 5.37258 17.3726 0 24 0C30.6274 0 36 5.37258 36 12C36 18.6274 30.6274 24 24 24C17.3726 24 12 18.6274 12 12Z" fill="#134074"/>
</g>
<defs>
<clipPath id="clip0_193_260">
<rect width="48" height="48" fill="white"/>
</clipPath>
</defs>
</svg>
