<svg width="32" height="33" viewBox="0 0 32 33" fill="none" xmlns="http://www.w3.org/2000/svg">
<g clip-path="url(#clip0_27_124)">
<path fill-rule="evenodd" clip-rule="evenodd" d="M3.94312 21.7729C5.44341 20.2726 7.47824 19.4297 9.59998 19.4297H22.4C24.5217 19.4297 26.5565 20.2726 28.0568 21.7729C29.5571 23.2732 30.4 25.308 30.4 27.4297V30.6297C30.4 31.5134 29.6836 32.2297 28.8 32.2297C27.9163 32.2297 27.2 31.5134 27.2 30.6297V27.4297C27.2 26.1567 26.6943 24.9358 25.7941 24.0356C24.8939 23.1355 23.673 22.6297 22.4 22.6297H9.59998C8.32694 22.6297 7.10604 23.1355 6.20586 24.0356C5.30569 24.9358 4.79998 26.1567 4.79998 27.4297V30.6297C4.79998 31.5134 4.08363 32.2297 3.19998 32.2297C2.31632 32.2297 1.59998 31.5134 1.59998 30.6297V27.4297C1.59998 25.308 2.44283 23.2732 3.94312 21.7729Z" fill="#FCF7F8"/>
<path fill-rule="evenodd" clip-rule="evenodd" d="M16 3.42974C13.349 3.42974 11.2 5.57877 11.2 8.22974C11.2 10.8807 13.349 13.0297 16 13.0297C18.651 13.0297 20.8 10.8807 20.8 8.22974C20.8 5.57877 18.651 3.42974 16 3.42974ZM8 8.22974C8 3.81146 11.5817 0.229736 16 0.229736C20.4183 0.229736 24 3.81146 24 8.22974C24 12.648 20.4183 16.2297 16 16.2297C11.5817 16.2297 8 12.648 8 8.22974Z" fill="#FCF7F8"/>
</g>
<defs>
<clipPath id="clip0_27_124">
<rect width="32" height="32" fill="white" transform="translate(0 0.229736)"/>
</clipPath>
</defs>
</svg>
