<svg width="596" height="745" viewBox="0 0 596 745" fill="none" xmlns="http://www.w3.org/2000/svg">
<g clip-path="url(#clip0_319_156)">
<rect width="596" height="745" fill="white"/>
<g filter="url(#filter0_f_319_156)">
<path fill-rule="evenodd" clip-rule="evenodd" d="M317.741 319.069C306.665 307.992 288.706 307.992 277.63 319.069L-127.944 724.643C-139.021 735.719 -139.021 753.678 -127.944 764.754L-56.6345 836.064C-45.558 847.141 -27.5993 847.141 -16.5228 836.064L54.7869 764.754C65.8634 753.678 83.822 753.678 94.8986 764.754L166.208 836.064C177.285 847.141 195.243 847.141 206.32 836.064L277.63 764.754C288.706 753.678 306.665 753.678 317.741 764.754L389.051 836.064C400.127 847.141 418.086 847.141 429.163 836.064L500.472 764.754C511.549 753.678 529.507 753.678 540.584 764.754L611.894 836.064C622.97 847.141 640.929 847.141 652.005 836.064L723.315 764.754C734.392 753.678 734.392 735.719 723.315 724.643L317.741 319.069Z" fill="#59C3DC"/>
<path fill-rule="evenodd" clip-rule="evenodd" d="M317.741 111.064C306.665 99.988 288.706 99.988 277.63 111.064L-127.944 516.638C-139.021 527.715 -139.021 545.673 -127.944 556.75L-56.6345 628.06C-45.558 639.136 -27.5993 639.136 -16.5228 628.06L54.7869 556.75C65.8634 545.673 83.822 545.673 94.8986 556.75L166.208 628.06C177.285 639.136 195.243 639.136 206.32 628.06L277.63 556.75C288.706 545.673 306.665 545.673 317.741 556.75L389.051 628.06C400.127 639.136 418.086 639.136 429.163 628.06L500.472 556.75C511.549 545.673 529.507 545.673 540.584 556.75L611.894 628.06C622.97 639.136 640.929 639.136 652.005 628.06L723.315 556.75C734.392 545.673 734.392 527.715 723.315 516.638L317.741 111.064Z" fill="#006DAA"/>
<path fill-rule="evenodd" clip-rule="evenodd" d="M317.741 -96.9397C306.665 -108.016 288.706 -108.016 277.63 -96.9397L-127.944 308.634C-139.021 319.711 -139.021 337.669 -127.944 348.746L-56.6345 420.055C-45.558 431.132 -27.5993 431.132 -16.5228 420.055L54.7869 348.746C65.8634 337.669 83.822 337.669 94.8986 348.746L166.208 420.055C177.285 431.132 195.243 431.132 206.32 420.055L277.63 348.746C288.706 337.669 306.665 337.669 317.741 348.746L389.051 420.055C400.127 431.132 418.086 431.132 429.163 420.055L500.472 348.746C511.549 337.669 529.507 337.669 540.584 348.746L611.894 420.055C622.97 431.132 640.929 431.132 652.005 420.055L723.315 348.746C734.392 337.669 734.392 319.711 723.315 308.634L317.741 -96.9397Z" fill="#0353A4"/>
<path fill-rule="evenodd" clip-rule="evenodd" d="M277.63 -433.5C266.553 -444.576 248.594 -444.576 237.518 -433.5L-242 38.8885C-253.077 49.965 -253.077 67.9236 -242 79.0002L-56.6346 212.051C-45.558 223.128 -27.5994 223.128 -16.5229 212.051L54.7868 140.741C65.8633 129.665 83.8219 129.665 94.8985 140.741L166.208 212.051C177.285 223.128 195.243 223.128 206.32 212.051L277.629 140.742C288.706 129.665 306.665 129.665 317.741 140.742L389.051 212.051C400.127 223.128 418.086 223.128 429.163 212.051L500.472 140.741C511.549 129.665 529.507 129.665 540.584 140.741L611.894 212.051C622.97 223.128 640.929 223.128 652.005 212.051L840 79.0003C851.077 67.9238 851.077 49.9651 840 38.8886L277.63 -433.5Z" fill="#134074"/>
</g>
</g>
<defs>
<filter id="filter0_f_319_156" x="-300.307" y="-491.807" width="1198.61" height="1386.18" filterUnits="userSpaceOnUse" color-interpolation-filters="sRGB">
<feFlood flood-opacity="0" result="BackgroundImageFix"/>
<feBlend mode="normal" in="SourceGraphic" in2="BackgroundImageFix" result="shape"/>
<feGaussianBlur stdDeviation="25" result="effect1_foregroundBlur_319_156"/>
</filter>
<clipPath id="clip0_319_156">
<rect width="596" height="745" fill="white"/>
</clipPath>
</defs>
</svg>
