<svg width="32" height="33" viewBox="0 0 32 33" fill="none" xmlns="http://www.w3.org/2000/svg">
<g clip-path="url(#clip0_27_120)">
<path fill-rule="evenodd" clip-rule="evenodd" d="M4.8 3.42974C3.91634 3.42974 3.2 4.14608 3.2 5.02974V27.4297C3.2 28.3134 3.91634 29.0297 4.8 29.0297H27.2C28.0837 29.0297 28.8 28.3134 28.8 27.4297V5.02974C28.8 4.14608 28.0837 3.42974 27.2 3.42974H4.8ZM0 5.02974C0 2.37877 2.14903 0.229736 4.8 0.229736H27.2C29.851 0.229736 32 2.37877 32 5.02974V27.4297C32 30.0807 29.851 32.2297 27.2 32.2297H4.8C2.14903 32.2297 0 30.0807 0 27.4297V5.02974Z" fill="#FCF7F8"/>
<path fill-rule="evenodd" clip-rule="evenodd" d="M16 8.22974C16.8837 8.22974 17.6 8.94608 17.6 9.82974V22.6297C17.6 23.5134 16.8837 24.2297 16 24.2297C15.1164 24.2297 14.4 23.5134 14.4 22.6297V9.82974C14.4 8.94608 15.1164 8.22974 16 8.22974Z" fill="#FCF7F8"/>
<path fill-rule="evenodd" clip-rule="evenodd" d="M8 16.2298C8 15.3461 8.71634 14.6298 9.6 14.6298H22.4C23.2837 14.6298 24 15.3461 24 16.2298C24 17.1134 23.2837 17.8298 22.4 17.8298H9.6C8.71634 17.8298 8 17.1134 8 16.2298Z" fill="#FCF7F8"/>
</g>
<defs>
<clipPath id="clip0_27_120">
<rect width="32" height="32" fill="white" transform="translate(0 0.229736)"/>
</clipPath>
</defs>
</svg>
