<svg width="32" height="32" viewBox="0 0 32 32" fill="none" xmlns="http://www.w3.org/2000/svg">
<path d="M20.299 18.447L18.301 19.6016L16.3029 20.7563C16.3029 20.7563 16.3471 25.1264 19.8715 31.2297C21.3909 31.0857 22.5712 30.3562 23.2473 29.8265C23.6562 29.5059 22.764 27.3312 22.764 27.3312C22.764 27.3312 24.1998 29.1899 24.6761 28.9994C25.4706 28.6811 26.6997 28.0213 27.5872 26.776C24.0627 20.6727 20.3013 18.447 20.3013 18.447H20.299Z" fill="#FCF7F8"/>
<path d="M11.6982 18.447C11.6982 18.447 7.93673 20.6704 4.41229 26.776C5.29747 28.0189 6.51952 28.6788 7.31641 28.9971C7.79734 29.1899 9.23546 27.3312 9.23546 27.3312C9.23546 27.3312 8.34331 29.5035 8.74757 29.8218C9.42132 30.3515 10.6062 31.0857 12.128 31.2297C15.6524 25.1264 15.6965 20.7563 15.6965 20.7563L13.6985 19.6016L11.7005 18.447H11.6982Z" fill="#FCF7F8"/>
<path d="M11.3984 15.6149V13.3055C11.3984 13.3055 7.59056 11.1588 0.544004 11.1588C-0.0902558 12.5458 -0.0484362 13.9352 0.0723753 14.7832C0.144397 15.2966 2.47467 15.6126 2.47467 15.6126C2.47467 15.6126 0.146723 15.9262 0.0747008 16.435C-0.0461106 17.283 -0.0902535 18.6747 0.54633 20.0663C7.59521 20.0663 11.4008 17.9196 11.4008 17.9196V15.6102L11.3984 15.6149Z" fill="#FCF7F8"/>
<path d="M8.75221 1.40559C8.34331 1.7262 9.23546 3.90081 9.23546 3.90081C9.23546 3.90081 7.79966 2.04217 7.32338 2.23268C6.52882 2.55098 5.29979 3.21079 4.41229 4.45608C7.93673 10.5594 11.6982 12.7851 11.6982 12.7851L13.6962 11.6304L15.6942 10.4757C15.6942 10.4757 15.6501 6.10562 12.1256 0.00231934C10.6062 0.146364 9.42597 0.875877 8.74989 1.40559H8.75221Z" fill="#FCF7F8"/>
<path d="M20.299 12.7828C20.299 12.7828 24.0604 10.5594 27.5848 4.45376C26.6997 3.2108 25.4776 2.55098 24.6807 2.23269C24.1998 2.03985 22.7617 3.89849 22.7617 3.89849C22.7617 3.89849 23.6538 1.72621 23.2496 1.40792C22.5758 0.878206 21.3909 0.144044 19.8692 0C16.3447 6.1033 16.3006 10.4734 16.3006 10.4734L18.2986 11.6281L20.2967 12.7828H20.299Z" fill="#FCF7F8"/>
<path d="M31.9294 16.4443C31.8574 15.9309 29.5271 15.6149 29.5271 15.6149C29.5271 15.6149 31.8551 15.3012 31.9271 14.7924C32.0479 13.9444 32.092 12.5528 31.4555 11.1611C24.4066 11.1611 20.601 13.3079 20.601 13.3079V17.9243C20.601 17.9243 24.4089 20.071 31.4555 20.071C32.0897 18.684 32.0479 17.2946 31.9271 16.4466L31.9294 16.4443Z" fill="#FCF7F8"/>
</svg>
