<svg width="48" height="48" viewBox="0 0 48 48" fill="none" xmlns="http://www.w3.org/2000/svg">
<path fill-rule="evenodd" clip-rule="evenodd" d="M29.1594 4.06538C30.8125 3.38039 32.5844 3.02783 34.3739 3.02783C36.1633 3.02783 37.9352 3.3804 39.5884 4.06538C41.2412 4.75024 42.743 5.75398 44.0079 7.01928C45.2732 8.28416 46.2776 9.78661 46.9625 11.4395C47.6474 13.0926 48 14.8645 48 16.654C48 18.4434 47.6474 20.2153 46.9625 21.8685C46.2775 23.5215 45.2737 25.0233 44.0082 26.2883C44.0081 26.2884 44.0083 26.2882 44.0082 26.2883L25.4819 44.8146C24.6635 45.6331 23.3365 45.6331 22.5181 44.8146L3.99174 26.2883C1.43656 23.7331 0.00106812 20.2675 0.00106812 16.654C0.00106812 13.0404 1.43656 9.57481 3.99174 7.01962C6.54692 4.46444 10.0125 3.02895 13.6261 3.02895C17.2397 3.02895 20.7052 4.46444 23.2604 7.01962L24 7.7592L24.7392 7.01997C24.7393 7.01986 24.7391 7.02009 24.7392 7.01997C26.0042 5.75451 27.5064 4.7503 29.1594 4.06538ZM34.3739 7.21931C33.135 7.21931 31.9083 7.46339 30.7638 7.93761C29.6194 8.41183 28.5795 9.1069 27.7037 9.9831L25.4819 12.2049C24.6635 13.0234 23.3365 13.0234 22.5181 12.2049L20.2966 9.98345C18.5275 8.21432 16.128 7.22043 13.6261 7.22043C11.1241 7.22043 8.72469 8.21432 6.95556 9.98345C5.18643 11.7526 4.19255 14.152 4.19255 16.654C4.19255 19.1559 5.18643 21.5553 6.95556 23.3245L24 40.3689L41.0444 23.3245C41.9206 22.4487 42.616 21.4085 43.0902 20.264C43.5645 19.1195 43.8085 17.8928 43.8085 16.654C43.8085 15.4151 43.5645 14.1884 43.0902 13.0439C42.616 11.8994 41.9209 10.8596 41.0447 9.98379C40.169 9.10759 39.1284 8.41183 37.9839 7.93761C36.8394 7.46339 35.6127 7.21931 34.3739 7.21931Z" fill="#134074"/>
</svg>
