<svg width="32" height="33" viewBox="0 0 32 33" fill="none" xmlns="http://www.w3.org/2000/svg">
<g clip-path="url(#clip0_27_127)">
<path fill-rule="evenodd" clip-rule="evenodd" d="M4.8 3.42973C4.37565 3.42973 3.96869 3.5983 3.66863 3.89836C3.36857 4.19842 3.2 4.60538 3.2 5.02973V26.767L6.86863 23.0983C7.16869 22.7983 7.57565 22.6297 8 22.6297H27.2C27.6243 22.6297 28.0313 22.4611 28.3314 22.1611C28.6314 21.861 28.8 21.4541 28.8 21.0297V5.02973C28.8 4.60538 28.6314 4.19842 28.3314 3.89836C28.0313 3.5983 27.6243 3.42973 27.2 3.42973H4.8ZM1.40589 1.63562C2.30606 0.735448 3.52696 0.229736 4.8 0.229736H27.2C28.473 0.229736 29.6939 0.735448 30.5941 1.63562C31.4943 2.53579 32 3.75669 32 5.02973V21.0297C32 22.3027 31.4943 23.5236 30.5941 24.4238C29.6939 25.324 28.473 25.8297 27.2 25.8297H8.66274L2.73137 31.7611C2.27377 32.2187 1.58559 32.3555 0.987706 32.1079C0.389828 31.8602 0 31.2768 0 30.6297V5.02973C0 3.75669 0.505713 2.53579 1.40589 1.63562Z" fill="#FCF7F8"/>
</g>
<defs>
<clipPath id="clip0_27_127">
<rect width="32" height="32" fill="white" transform="translate(0 0.229736)"/>
</clipPath>
</defs>
</svg>
